<?xml version="1.0" encoding="UTF-8"?><svg id="Layer_1" xmlns="http://www.w3.org/2000/svg" xmlns:xlink="http://www.w3.org/1999/xlink" viewBox="0 0 3832.51 826.29"><defs><style>.cls-1{fill:url(#linear-gradient-2);}.cls-2{fill:url(#linear-gradient);}.cls-3{fill:#fff;}.cls-4{fill:#1a0935;}</style><linearGradient id="linear-gradient" x1="148.93" y1="870.7" x2="677.25" y2="-44.37" gradientUnits="userSpaceOnUse"><stop offset="0" stop-color="#5d54ed"/><stop offset=".38" stop-color="#9d2eeb"/><stop offset=".88" stop-color="#ff4c00"/></linearGradient><linearGradient id="linear-gradient-2" x1="3423.87" y1="757.61" x2="3734.31" y2="219.91" gradientUnits="userSpaceOnUse"><stop offset=".2" stop-color="#5d54ed"/><stop offset=".49" stop-color="#9d2eeb"/><stop offset=".83" stop-color="#ff4c00"/></linearGradient></defs><path class="cls-2" d="M826.29,98.32v629.66c-.14,26.05-10.5,50.98-28.85,69.46-18.49,18.49-43.42,28.85-69.6,28.85H98.32c-26.05,0-51.12-10.36-69.46-28.85-18.49-18.49-28.85-43.42-28.85-69.46V98.32c0-26.05,10.36-50.98,28.85-69.46C47.2,10.5,72.27,0,98.32,0h629.52c26.19,0,51.12,10.5,69.6,28.85,18.35,18.49,28.71,43.41,28.85,69.46Z"/><path class="cls-3" d="M690.14,432.46h-83.89v210.63c-30.11-4.06-60.36-6.16-90.75-6.16-108.96-.14-216.24,26.05-312.73,76.47h-.28v-280.94h-83.47L404.57,146.89l285.56,285.56Z"/><path class="cls-3" d="M707.28,180.71s-49.49,8.58-70.67,29.76c-21.18,21.18-29.94,70.85-29.94,70.85,0,0-8.58-49.67-29.77-70.85-21.18-21.18-70.85-29.76-70.85-29.76,0,0,49.67-8.76,70.85-29.95,21.18-21.18,29.77-70.85,29.77-70.85,0,0,8.76,49.67,29.94,70.85,21.18,21.18,70.67,29.95,70.67,29.95Z"/><path class="cls-1" d="M3749.01,137.79v553.01h83.51V137.79h-83.51ZM3508.15,137.79h-96.5l-199.02,553.01h88.58l50.71-146.25h216.13l50.55,146.25h88.58l-199.02-553.01ZM3376.16,474.19l81.76-235.94h4.28l81.61,235.94h-167.65Z"/><path class="cls-4" d="M3142.18,340.83c-11.69-23.23-28.17-40.69-49.42-52.4-21.25-11.88-46-17.83-74.28-17.83-31.14,0-56.98,6.66-77.52,19.99-20.35,13.33-35.29,30.97-44.83,52.94h-5.13v-67.52h-77.52v414.87h80.77v-246.33c0-21.97,4.14-40.7,12.42-56.18,8.46-15.66,19.89-27.55,34.29-35.65,14.59-8.1,31.25-12.15,49.98-12.15,27.37,0,48.88,8.55,64.55,25.66,15.66,16.93,23.5,40.43,23.5,70.5v254.16h80.75v-263.89c0-34.21-5.85-62.93-17.56-86.16Z"/><path class="cls-4" d="M2761.83,479.11c0-37.55-4.91-69.56-15.05-95.87-10.14-26.46-23.93-48.01-41.36-64.49-17.43-16.64-37.08-28.84-59.1-36.6-22.03-7.61-44.68-11.57-68.14-11.57-38.5,0-72.1,9.19-100.94,27.25-28.68,18.22-51.02,43.58-67.03,75.9-15.85,32.48-23.77,69.88-23.77,112.34s7.92,80.65,23.77,112.66c16,31.85,38.66,56.73,68.14,74.32,29.47,17.43,64.65,26.15,105.53,26.15,30.27,0,57.2-4.59,80.81-13.79,23.77-9.35,43.42-22.34,59.1-39.14,15.85-16.95,26.78-36.6,32.96-59.1l-76.38-13.79c-4.91,12.99-11.88,23.93-21.07,32.64-9.19,8.87-20.12,15.53-32.8,19.97-12.52,4.44-26.46,6.5-41.83,6.5-23.61,0-44.21-5.07-61.8-15.05-17.59-10.3-31.37-25.19-41.36-44.53-9.03-18.06-13.63-39.93-14.26-65.13h294.57v-28.68ZM2467.41,447.26c.95-17.75,5.23-34.54,12.99-49.91,9.19-17.91,22.18-32.33,38.98-43.26,16.95-11.25,36.76-16.8,59.42-16.8,20.92,0,38.98,4.75,54.51,14.42,15.69,9.51,27.89,22.5,36.45,39.14,8.71,16.32,12.99,35.18,12.99,56.41h-215.34Z"/><polygon class="cls-4" points="2189.86 595.26 2185.53 595.26 2080.46 276.01 1993.77 276.01 2144.47 690.88 2230.91 690.88 2381.35 276.01 2294.64 276.01 2189.86 595.26"/><path class="cls-4" d="M1956.08,341.57c-10.46-19.01-23.77-33.75-40.25-43.89-16.16-10.3-33.59-17.27-52.45-21.07-18.54-3.96-35.97-6.02-52.61-6.02-25.04,0-48.8,3.64-71.62,10.77-22.66,7.13-42.78,18.38-60.21,34.07-17.27,15.53-30.42,35.81-39.46,61.01l75.9,17.27c6.02-14.58,16.64-27.73,32.17-39.61,15.69-12.04,37.08-18.06,64.33-18.06s45.79,6.5,58.79,19.33c13.47,12.99,20.12,31.37,20.12,54.83v1.9c0,9.82-3.64,16.8-10.62,21.07-6.97,4.44-18.22,7.45-33.75,9.51-15.53,1.74-35.65,4.12-60.53,6.97-19.65,2.38-38.82,5.86-57.84,10.3-18.86,4.44-35.97,11.25-51.18,19.97-15.37,8.87-27.57,20.76-36.44,35.97-9.03,15.05-13.63,34.38-13.63,57.84,0,27.1,6.18,50.07,18.38,68.77,12.52,18.86,29.31,33.12,50.55,42.94s45,14.58,71.31,14.58c22.82,0,42.47-3.33,58.95-9.98,16.32-6.65,29.79-15.05,40.25-25.04,10.3-10.14,18.22-20.44,23.45-30.74h3.17v56.57h78.91v-275.4c0-30.26-5.23-54.83-15.69-73.84ZM1890.95,541.22c0,16.48-4.12,31.85-12.68,46.27-8.24,14.1-20.44,25.67-36.44,34.54-15.85,8.71-34.86,13.15-57.2,13.15s-41.67-4.91-56.57-15.05c-14.74-10.3-22.02-25.35-22.02-45.32,0-14.42,3.8-25.99,11.25-34.7,7.76-8.72,18.06-15.53,30.9-20.28,12.83-4.59,27.25-7.92,42.94-9.98,6.65-.79,14.89-1.9,24.72-3.17,9.98-1.43,20.12-3.01,30.58-4.59,10.46-1.74,19.81-3.8,27.89-6.18,8.24-2.53,13.79-5.23,16.64-8.08v53.4Z"/><polygon class="cls-4" points="1299.11 567.71 1292.63 567.71 1116.52 137.72 1015.24 137.72 1015.24 690.88 1094.65 690.88 1094.65 290.33 1099.78 290.33 1262.92 690.07 1328.82 690.07 1491.96 290.59 1497.09 290.59 1497.09 690.88 1576.5 690.88 1576.5 137.72 1475.21 137.72 1299.11 567.71"/></svg>